<svg t="1735740003377" class="icon" viewBox="0 0 1024 1024" version="1.1" xmlns="http://www.w3.org/2000/svg" p-id="1281" width="200" height="200"><path d="M511.943111 1023.943111a512 512 0 1 1 0-1024 512 512 0 0 1 0 1024z m0-919.096889a407.096889 407.096889 0 1 0 0 814.193778A407.096889 407.096889 0 0 0 512 104.846222z m170.666667 463.985778h-113.777778v113.777778a56.888889 56.888889 0 0 1-113.777778 0v-113.777778h-113.777778a56.888889 56.888889 0 0 1 0-113.777778h113.777778v-113.777778a56.888889 56.888889 0 0 1 113.777778 0v113.777778h113.777778a56.888889 56.888889 0 0 1 0 113.777778z"  p-id="1282"></path></svg>