<?xml version="1.0" standalone="no"?><!DOCTYPE svg PUBLIC "-//W3C//DTD SVG 1.1//EN" "http://www.w3.org/Graphics/SVG/1.1/DTD/svg11.dtd"><svg t="1744980602795" class="icon" viewBox="0 0 1024 1024" version="1.1" xmlns="http://www.w3.org/2000/svg" p-id="9540" xmlns:xlink="http://www.w3.org/1999/xlink" width="200" height="200"><path d="M532.193768 4.583619s389.948952 226.157714 404.23619 236.105143c12.775619 8.923429 14.336 22.381714 14.482286 24.966095v52.809143c-0.097524 118.881524-0.24381 399.847619 0 416.182857 0.438857 20.72381-25.453714 36.327619-25.453714 36.327619l-389.60762 225.182476c-23.990857 12.678095-47.299048 0-47.299047 0S144.292815 796.086857 106.161006 774.582857c-37.400381-17.749333-32.768-54.467048-32.768-54.467047v-60.172191C73.295482 547.303619 73.24672 313.441524 73.393006 284.281905c0.195048-38.765714 19.017143-49.444571 21.552762-50.712381C95.287101 233.423238 467.925577 18.090667 492.160244 4.583619c23.990857-10.288762 40.033524 0 40.033524 0z m-41.837715 108.739048L184.472625 289.450667s-20.333714 12.190476-19.992381 28.42819c0.24381 13.409524 0.048762 254.293333 0 338.16381v28.525714s0.24381 12.141714 11.410286 19.943619c11.215238 7.801905 317.342476 184.758857 317.342476 184.758857s12.580571 8.045714 31.402666 0c19.017143-10.581333 311.588571-179.102476 311.588572-179.102476s17.017905-7.265524 17.212952-39.789714L853.437196 578.852571l-344.454095 208.700953v-79.823238c0-32.768 25.35619-54.418286 25.35619-54.418286l304.761905-183.637333c11.459048-11.995429 13.848381-31.207619 14.336-38.521905V366.006857L853.437196 350.256762l-344.405333 208.700952V475.428571c0-32.768 21.74781-47.152762 21.747809-47.152761l264.43581-160.182858c-79.774476-45.933714-267.702857-154.819048-267.702857-154.819047s-18.334476-9.898667-37.156572 0z" fill="#1989FA" p-id="9541"></path></svg>