<svg t="1735740429168" class="icon" viewBox="0 0 1024 1024" version="1.1" xmlns="http://www.w3.org/2000/svg" p-id="1453" width="200" height="200"><path d="M821.998001 1024H202.229479a116.697101 116.697101 0 0 1-116.640231-116.526491V529.345329c0-64.263023 52.320338-116.526491 116.583361-116.526491h38.955904V271.042097c0-72.566034 28.434966-140.753082 80.186604-192.049761C373.066756 27.695657 441.538154 0.454959 514.502277 0.22748a267.061202 267.061202 0 0 1 190.229923 80.186604c50.38676 50.898589 73.817172 86.385427 79.390426 161.738087 0.909919 12.113296 0.853049 13.421304 0.568699 15.980451-0.05687 1.194269-0.22748 2.900367-0.17061 8.64423v2.047318l-1.023658 1.706098c-13.421304 21.667444-28.605576 32.643341-45.211597 32.643341-27.752527 0-47.429523-31.278463-48.339442-32.643341l-0.909919-1.649228-0.05687-1.933578-0.05687-24.738421c0-89.513273-69.495057-147.349994-176.979229-147.349994-97.020104 0.454959-176.01244 80.414084-176.01244 178.230368v139.729423l442.163723-0.398089 44.529157 0.398089c63.978674 0 116.014662 52.263468 116.014662 116.526491v378.12818c0 64.263023-52.320338 116.526491-116.583361 116.526491z m21.383094-494.199711a21.326225 21.326225 0 0 0-21.383094-21.326225H202.229479a21.383095 21.383095 0 0 0-21.439964 21.326225v378.185049c0 11.772076 9.611019 21.383095 21.439964 21.383095h619.768522a21.383095 21.383095 0 0 0 21.383094-21.383095v-378.185049z m-285.48706 279.800066c0 24.454071-19.108297 43.562368-43.505498 43.562369a43.107409 43.107409 0 0 1-43.619238-43.562369v-83.54193a71.656115 71.656115 0 0 1 43.619238-128.412307c19.506387 0 37.818505 7.620571 51.353549 21.383094 13.364434 13.535044 20.473176 31.449073 20.245696 50.38676 0 22.349883-10.407198 43.278018-28.036877 56.642453v83.54193z"p-id="1454"></path></svg>