<?xml version="1.0" standalone="no"?><!DOCTYPE svg PUBLIC "-//W3C//DTD SVG 1.1//EN" "http://www.w3.org/Graphics/SVG/1.1/DTD/svg11.dtd"><svg t="1744787951755" class="icon" viewBox="0 0 2661 1024" version="1.1" xmlns="http://www.w3.org/2000/svg" p-id="5233" xmlns:xlink="http://www.w3.org/1999/xlink" width="519.7265625" height="200"><path d="M1256.997101 586.202899v144.448309l86.570049 20.282125v-164.730434h-73.708213zM1520.664734 586.202899V742.028986l81.623189-27.20773v-128.618357h-54.415459z" fill="#1D83F2" p-id="5234"></path><path d="M1428.65314 450.658937m-59.362319 0a59.362319 59.362319 0 1 0 118.724638 0 59.362319 59.362319 0 1 0-118.724638 0Z" fill="#F28420" p-id="5235"></path><path d="M1585.963285 224.092754l38.585507-24.239614h-445.217391l-80.13913 590.160387H1167.458937l76.676329-565.920773" fill="#1D83F2" p-id="5236"></path><path d="M1447.945894 289.391304l-25.723672 31.659904h-122.682125L1256.502415 378.929469v186.496618h133.565218v98.442512l-0.989372 125.650242H1472.185507v-223.598068h107.34686l35.122705-55.404831V321.051208h-89.043478l22.26087-31.659904h-99.92657z m-126.144928 62.825121h222.11401v185.507246h-222.11401" fill="#1D83F2" p-id="5237"></path><path d="M2217.182609 484.792271v41.553623h-48.479227l-35.617392 42.048309h84.096619L2211.246377 791.497585l98.937198-48.479228v-56.394202l-45.016425 26.713043 5.936232-144.942995h39.080193v-42.048309h-39.080193V484.792271h39.080193V418.009662h-86.570048L2180.575845 484.792271z" fill="#1D83F2" p-id="5238"></path><path d="M2260.714976 336.881159l77.6657-135.543961h-65.29855l-177.592271 284.444445 74.697585-5.441546 52.436715-88.054107 86.570048-0.989372v-54.415459z" fill="#1D83F2" p-id="5239"></path><path d="M2515.972947 391.296618V199.358454h-71.729469v126.144928h-121.198067V563.942029h76.676328l32.649275-20.282126h-48.479227V349.742995H2443.748792V791.497585h71.729469v-227.555556H2641.623188V325.998068h-77.6657l-39.080193 24.239613H2587.207729l-0.989372 3.462802v189.95942h-69.750724" fill="#1D83F2" p-id="5240"></path><path d="M1876.838647 354.689855l103.884058-130.102415h-334.902415l35.617391-24.7343h395.748792l-129.607729 145.932367 3.957488 107.841546h141.974879l-34.628019 35.617391h-103.389372v255.752657l-172.150725 46.99517v-55.899517l105.862802-29.186474-4.94686-217.661836H1652.251208l32.154589-35.617391h195.895652l-3.462802-98.937198zM2608.479227 391.296618h18.303382v132.08116h-18.303382z" fill="#1D83F2" p-id="5241"></path><path d="M427.062475 597.084889a123.671498 123.671498 0 1 0 174.894856-174.900961 123.671498 123.671498 0 1 0-174.894856 174.900961Z" fill="#1D83F2" p-id="5242"></path><path d="M789.25159 232.976594a74.202899 74.202899 0 1 0 104.936914-104.940577 74.202899 74.202899 0 1 0-104.936914 104.940577Z" fill="#1D83F2" p-id="5243"></path><path d="M855.806763 253.773913L841.955556 183.033816l-73.708213-15.829951c-9.399034 51.447343-34.133333 100.421256-73.708213 140.490821-50.457971 50.457971-116.251208 76.676329-182.53913 78.160386l2.47343 123.671498 125.155556 1.978744c0.989372-66.782609 27.207729-133.565217 78.160386-184.517874 39.080193-39.080193 87.55942-63.814493 138.017391-73.213527z" fill="#1D83F2" p-id="5244"></path><path d="M912.147526 344.238921a32.154589 32.154589 0 1 0 59.413934-24.610058 32.154589 32.154589 0 1 0-59.413934 24.610058Z" fill="#1D83F2" p-id="5245"></path><path d="M680.482626 112.926789a32.154589 32.154589 0 1 0 24.610057-59.413934 32.154589 32.154589 0 1 0-24.610057 59.413934Z" fill="#1D83F2" p-id="5246"></path><path d="M913.190338 346.774879c89.043478 219.145894-15.335266 468.962319-233.986473 559.489855-219.64058 91.022222-471.435749-13.356522-562.457971-232.997101C25.723671 453.627053 130.102415 201.831884 349.742995 110.809662c111.304348-46.005797 231.018357-42.048309 333.418358 1.978744l24.734299-59.362319C590.160386 3.462802 452.637681-0.989372 325.008696 51.447343 72.718841 155.826087-47.489855 445.217391 57.383575 698.001932c104.378744 252.289855 393.770048 372.498551 646.554589 267.625121 251.300483-104.378744 371.509179-391.791304 268.614493-643.586473l-59.362319 24.734299z" fill="#1D83F2" p-id="5247"></path></svg>