<svg t="1735740479551" class="icon" viewBox="0 0 1025 1024" version="1.1" xmlns="http://www.w3.org/2000/svg" p-id="1621" width="200" height="200"><path d="M994.965639 192.061933l-0.568847 0.568847-4.550772 4.437003-0.625731 0.568846-298.132473 238.005393a2.275386 2.275386 0 0 0-0.682615 1.649655v471.232475a114.338155 114.338155 0 0 1-33.106869 81.800133c-21.274861 21.38863-50.684227 33.561946-80.833094 33.561946H575.38443c-19.340782 0-38.510911-4.721426-55.348769-13.709202l-0.227538-0.170654-127.307856-70.707625a113.428 113.428 0 0 1-60.12708-100.970261V434.902522a1.877194 1.877194 0 0 0-0.682615-1.308347l-0.227539-0.170654L35.207754 196.442052l-3.868156-4.835196A111.493922 111.493922 0 0 1 9.723429 68.280926 112.062769 112.062769 0 0 1 115.130693-0.037544h794.906157c45.109531 0 86.578444 26.735787 105.521034 68.034046a112.859154 112.859154 0 0 1-20.592245 124.065431z m-84.189288-78.387053a1.59277 1.59277 0 0 0-1.308347-0.910155H114.391193c-0.113769 0-0.170654 0.056885-0.227539 0.170654l-0.625731 1.308347-0.170654 0.511962 290.111736 231.065465c27.589057 22.014361 43.459876 54.609268 43.459876 89.422677v403.824159c0 0.682616 0.113769 1.194578 0.170654 1.479001l127.080317 69.456163a3.811272 3.811272 0 0 0 2.389156 0.227539 1.59277 1.59277 0 0 0 0.511962-1.365232V437.803639c0-35.211601 15.586395-67.806508 42.66349-89.479561l291.192545-233.909698c0-0.284423 0-0.511962-0.170654-0.7395z m-124.008546 351.717816h188.857051c19.852744 0 37.543872 12.969701 45.280185 32.936215 7.622544 20.023398 3.640618 42.947914-10.239238 58.42054l-0.056884 0.113769a46.474762 46.474762 0 0 1-34.187677 15.529511h-189.482783c-26.906441-0.056885-48.807033-24.005324-48.920803-53.41469 0-29.58002 21.957476-53.585344 48.807033-53.585345z m0 297.279203h188.857051c19.852744 0 37.543872 12.969701 45.223301 32.936215 7.622544 20.023398 3.526849 42.891029-10.296123 58.363655l-0.113769 0.113769a46.759186 46.759186 0 0 1-34.301447 15.472626H786.824689c-26.849557-0.056885-48.750149-24.005324-48.920802-53.357806 0-29.58002 22.014361-53.52846 48.863918-53.528459z m-0.796385-41.355144c-25.768748-1.70654-45.905916-25.199902-45.905916-53.41469 0-28.271673 20.137168-51.708151 45.905916-53.41469l0.967039-0.056885h188.743282c19.79586 0 37.486987 12.912816 45.166416 32.87933s3.697503 42.834145-10.125469 58.306771l-0.113769 0.113769a46.247224 46.247224 0 0 1-34.756524 15.529511v0.113769l-189.880975-0.056885z"  p-id="1622"></path></svg>